<mxfile host="app.diagrams.net" modified="2023-03-25T17:42:07.356Z" agent="Mozilla/5.0 (Macintosh; Intel Mac OS X 10_15_7) AppleWebKit/537.36 (KHTML, like Gecko) Chrome/111.0.0.0 Safari/537.36" version="21.1.1" etag="5eS9VlRzAj9JAt_nPERd" type="github">
  <diagram name="Page-1" id="FvS6U0uAjFM9uRjSHnRi">
    <mxGraphModel>
      <root>
        <mxCell id="0" />
        <mxCell id="1" parent="0" />
      </root>
    </mxGraphModel>
  </diagram>
</mxfile>
